<svg width="64" height="64" viewBox="0 0 64 64" fill="none" xmlns="http://www.w3.org/2000/svg">
  <rect width="64" height="64" rx="16" fill="#141E2E" stroke="#1B2D44" stroke-width="1.5"/>
  <rect x="16" y="15" width="7" height="34" rx="3.5" fill="url(#cyanGrad)"/>
  <circle cx="19.5" cy="27" r="1.3" fill="#3A4D66"/>
  <circle cx="19.5" cy="34" r="1.3" fill="#3A4D66"/>
  <circle cx="19.5" cy="41" r="1.3" fill="#3A4D66"/>
  <path d="M23 15H34C43 15 49 20 49 27C49 34 43 39 34 39H23V15Z" fill="url(#cyanGrad)"/>
  <path d="M23 21H33C37 21 40 23 40 27C40 31 37 33 33 33H23V21Z" fill="#0F1726"/>
  <path d="M30 35L45 49H38L27 38Z" fill="#00F5A0"/>
  <polygon points="46,18 48,22 52,24 48,26 46,30 44,26 40,24 44,22" fill="#F59E0B"/>
  <defs>
    <linearGradient id="cyanGrad" x1="0%" y1="0%" x2="100%" y2="100%">
      <stop offset="0%" stop-color="#00F2FE"/>
      <stop offset="100%" stop-color="#00C9FF"/>
    </linearGradient>
  </defs>
</svg>
